<svg width="130" height="100" viewBox="0 0 130 100" fill="none" xmlns="http://www.w3.org/2000/svg">
<path fill-rule="evenodd" clip-rule="evenodd" d="M46.0026 100L0 49.9985L46.0026 0L53.6715 8.33211L15.3324 49.9985C28.1112 63.8873 40.8927 77.7761 53.6715 91.6649L46.0026 100ZM130 49.9985L83.9974 100L76.3285 91.6649L114.665 49.9985L76.3285 8.33211L83.9974 0L130 49.9985Z" fill="#D0E6F0"/>
<path d="M58.7491 49.0945H71.2813C74.7702 49.0945 77.5548 46.0068 77.5548 42.2405V29.3975C77.5548 25.7427 74.6864 22.9967 71.2813 22.3864C69.1259 22.0009 66.8895 21.8256 64.745 21.8364C62.5996 21.8471 60.5521 22.0437 58.7491 22.3864C53.44 23.3951 52.4761 25.5053 52.4761 29.3975V34.538H65.0226V36.2513H52.4761H47.7676C44.1208 36.2513 40.9277 38.6073 39.9295 43.0896C38.7777 48.227 38.726 51.4325 39.9295 56.7972C40.8214 60.7898 42.9511 63.6353 46.5976 63.6353H50.9116V57.473C50.9116 53.0211 54.4941 49.0945 58.7491 49.0945ZM57.9597 31.111C56.6592 31.111 55.6052 29.9653 55.6052 28.5485C55.6052 27.1269 56.6592 25.9707 57.9597 25.9707C59.2558 25.9707 60.3137 27.1269 60.3137 28.5485C60.3137 29.9654 59.2559 31.111 57.9597 31.111ZM90.1017 43.0896C89.2001 39.1874 87.479 36.2513 83.8278 36.2513H79.1193V42.2405C79.1193 46.8842 75.4573 50.7918 71.2813 50.7918H58.7491C55.3169 50.7918 52.4761 53.9502 52.4761 57.6462V70.4888C52.4761 74.1439 55.4325 76.2945 58.7491 77.3419C62.7207 78.598 66.5287 78.8255 71.2813 77.3419C74.4396 76.3599 77.5548 74.3809 77.5548 70.4888V65.3485H65.0226V63.6352H77.5548H83.8278C87.4743 63.6352 88.8336 60.9008 90.1017 56.7971C91.4111 52.5723 91.3552 48.5092 90.1017 43.0896ZM72.0713 68.7752C73.3722 68.7752 74.4253 69.921 74.4253 71.3371C74.4253 72.7588 73.3722 73.9155 72.0713 73.9155C70.775 73.9155 69.7168 72.7588 69.7168 71.3371C69.7168 69.921 70.775 68.7752 72.0713 68.7752Z" fill="#4C5D70"/>
</svg>
